<svg version="1.1" xmlns="http://www.w3.org/2000/svg" xmlns:xlink="http://www.w3.org/1999/xlink" x="0px" y="0px" viewBox="92 10 430 320" xml:space="preserve">
<style type="text/css">
	.st0{fill:#FFFFFF;}
	.st1{fill:#008BD2;}
	.st2{fill:#76B82A;}
</style>
<g>
	<g>
		<path class="st0" d="M218.6,308.6v-12H206v12h-2.8v-25.4h2.8V294h12.6v-10.8h2.8v25.4H218.6z"/>
		<path class="st0" d="M242.9,299c0,1.6-0.2,3-0.7,4.3s-1,2.3-1.8,3.2c-0.8,0.9-1.6,1.5-2.6,1.9s-2.1,0.7-3.3,0.7s-2.2-0.2-3.2-0.6
			s-1.9-1.1-2.6-1.9c-0.7-0.8-1.3-1.9-1.7-3.1s-0.6-2.7-0.6-4.3c0-1.6,0.2-3,0.7-4.3c0.4-1.2,1-2.3,1.8-3.1s1.6-1.5,2.7-1.9
			s2.1-0.7,3.3-0.7s2.2,0.2,3.2,0.6s1.9,1,2.6,1.8c0.7,0.8,1.3,1.8,1.7,3.1C242.7,295.9,242.9,297.3,242.9,299z M240.1,299
			c0-2.5-0.5-4.4-1.5-5.7c-1-1.2-2.4-1.9-4-1.9c-1.7,0-3,0.6-4,1.9c-1,1.2-1.5,3.1-1.5,5.7c0,2.5,0.5,4.4,1.5,5.7
			c1,1.3,2.3,1.9,4,1.9s3-0.6,4-1.9C239.6,303.5,240.1,301.6,240.1,299z"/>
		<path class="st0" d="M257.1,292.4c-0.4-0.2-0.8-0.4-1.2-0.5c-0.4-0.1-1-0.2-1.6-0.2c-1.3,0-2.3,0.5-3.1,1.5
			c-0.7,1-1.1,2.4-1.1,4.2v11.2h-2.8v-19h2.8v2.4c0.4-0.8,1.1-1.4,1.9-2c0.8-0.5,1.8-0.8,2.8-0.8c0.7,0,1.3,0,1.8,0.1
			s0.9,0.2,1.2,0.3L257.1,292.4z"/>
		<path class="st0" d="M261.9,308.6v-24.9l2.8-1.5v26.4H261.9z"/>
		<path class="st0" d="M273.8,284.3c0,0.5-0.2,1-0.6,1.4s-0.8,0.6-1.3,0.6c-0.6,0-1-0.2-1.4-0.6s-0.6-0.8-0.6-1.4s0.2-1,0.6-1.4
			s0.9-0.6,1.4-0.6s0.9,0.2,1.3,0.6C273.6,283.2,273.8,283.7,273.8,284.3z M270.5,308.6v-19h2.8v19H270.5z"/>
		<path class="st0" d="M290.9,308.6v-11.1c0-2.1-0.4-3.6-1.1-4.5s-1.9-1.4-3.4-1.4c-1.3,0-2.4,0.5-3.3,1.4s-1.4,2.5-1.4,4.5v11.1
			H279v-19h2.8v2.3c0.6-0.8,1.3-1.4,2.1-2c0.9-0.5,1.9-0.8,3.1-0.8c1,0,1.9,0.2,2.8,0.5c0.8,0.3,1.5,0.8,2.1,1.4s1,1.4,1.3,2.4
			s0.5,2.2,0.5,3.5v11.6h-2.8V308.6z"/>
		<path class="st0" d="M313.4,306.9c0,1.4-0.2,2.7-0.5,3.7c-0.3,1.1-0.9,2-1.7,2.7s-1.8,1.3-3,1.6s-2.7,0.6-4.5,0.6l-0.9-2.1
			c1.6,0,2.9-0.2,3.9-0.4c1-0.2,1.8-0.6,2.4-1.1s1-1.1,1.2-1.9s0.3-1.7,0.3-2.8v-1c-0.7,0.7-1.5,1.4-2.4,1.9s-2,0.8-3.3,0.8
			c-0.9,0-1.8-0.2-2.7-0.6s-1.6-0.9-2.2-1.7c-0.6-0.8-1.1-1.8-1.4-3c-0.4-1.2-0.5-2.7-0.5-4.3c0-1.7,0.2-3.2,0.6-4.4
			c0.4-1.3,0.9-2.3,1.5-3.2c0.7-0.9,1.4-1.5,2.3-1.9s1.8-0.7,2.8-0.7c1.2,0,2.2,0.2,3.1,0.7c0.8,0.5,1.6,1.1,2.3,1.8v-2.1h2.8
			L313.4,306.9L313.4,306.9z M310.6,294.4c-0.5-0.8-1.2-1.5-2.1-2s-1.9-0.8-3-0.8c-1.6,0-2.8,0.7-3.5,2c-0.8,1.3-1.2,3.3-1.2,5.9
			c0,2.4,0.4,4.3,1.3,5.5c0.8,1.2,2,1.8,3.5,1.8c1,0,1.9-0.2,2.8-0.7c0.8-0.5,1.6-1.2,2.3-2L310.6,294.4L310.6,294.4z"/>
		<path class="st0" d="M330.7,303.6c0,0.9-0.2,1.8-0.6,2.4c-0.4,0.7-0.9,1.2-1.5,1.7c-0.6,0.4-1.3,0.8-2.1,1
			c-0.8,0.2-1.6,0.3-2.4,0.3c-1.3,0-2.5-0.2-3.6-0.7c-1.1-0.4-2.1-1-3.1-1.8l1.6-2c0.8,0.7,1.6,1.2,2.5,1.6s1.8,0.5,2.7,0.5
			c1.3,0,2.3-0.3,2.9-0.8s0.9-1.2,0.9-2.2c0-0.4-0.1-0.7-0.2-1.1c-0.2-0.3-0.4-0.6-0.8-0.9s-0.8-0.6-1.4-0.9s-1.3-0.6-2.1-1
			c-0.9-0.4-1.8-0.8-2.4-1.2c-0.7-0.4-1.2-0.8-1.7-1.2s-0.8-0.9-1-1.5c-0.2-0.5-0.3-1.2-0.3-2c0-0.7,0.2-1.4,0.5-2s0.7-1.1,1.2-1.5
			s1.1-0.8,1.9-1s1.5-0.3,2.4-0.3c1.3,0,2.5,0.2,3.5,0.6s1.9,0.9,2.6,1.5l-1.5,2c-0.7-0.6-1.5-1-2.2-1.3s-1.6-0.4-2.6-0.4
			s-1.8,0.2-2.3,0.7s-0.8,1-0.8,1.7c0,0.4,0.1,0.8,0.2,1.1c0.1,0.3,0.4,0.6,0.7,0.9c0.3,0.3,0.8,0.6,1.3,0.8c0.5,0.3,1.2,0.6,2,1
			c0.9,0.4,1.7,0.8,2.4,1.2c0.7,0.4,1.3,0.8,1.8,1.2s0.9,1,1.1,1.6C330.6,302.1,330.7,302.8,330.7,303.6z"/>
		<path class="st0" d="M360.1,308.6l-2-2.6c-0.9,0.9-1.9,1.7-3.1,2.2c-1.1,0.5-2.4,0.8-3.8,0.8s-2.6-0.2-3.5-0.5s-1.7-0.9-2.3-1.5
			c-0.6-0.6-1-1.3-1.3-2.2c-0.3-0.8-0.4-1.7-0.4-2.6s0.1-1.8,0.4-2.5s0.6-1.4,1.1-2s1.1-1.2,1.8-1.6c0.7-0.5,1.5-1,2.4-1.4l-0.9-1.2
			c-0.6-0.8-1.1-1.7-1.6-2.4c-0.4-0.8-0.6-1.7-0.6-2.6c0-0.8,0.1-1.5,0.4-2.2s0.7-1.2,1.3-1.7c0.5-0.5,1.2-0.9,2-1.1
			c0.8-0.3,1.7-0.4,2.7-0.4c1.4,0,2.7,0.2,3.7,0.6c1.1,0.4,2.1,1,3,1.7l-1.4,2.2c-0.9-0.7-1.8-1.3-2.6-1.6c-0.8-0.3-1.7-0.5-2.7-0.5
			c-1.1,0-2,0.3-2.7,0.8c-0.6,0.5-1,1.2-1,2.1c0,0.7,0.1,1.3,0.4,1.8s0.6,1.1,1.1,1.7l7.7,10c0.3-0.6,0.6-1.3,0.9-2.1
			c0.3-0.7,0.5-1.5,0.8-2.4l2.4,0.7c-0.6,2.1-1.4,4.1-2.5,5.8l3.7,4.8L360.1,308.6L360.1,308.6z M350.7,296.4
			c-1.6,0.7-2.7,1.6-3.4,2.5c-0.7,0.9-1,2-1,3.2s0.4,2.3,1.3,3.1c0.8,0.9,2.1,1.3,3.7,1.3c1.1,0,2.1-0.2,2.9-0.7s1.7-1,2.4-1.8
			L350.7,296.4z"/>
		<path class="st0" d="M376.6,308.6v-25.4h15.3v2.6h-12.5v8h7.2v2.6h-7.2v9.7h13v2.6h-15.8V308.6z"/>
		<path class="st0" d="M410.8,298.5c0,0.3,0,0.6,0,0.8c0,0.2,0,0.4-0.1,0.7h-12.6c0.1,2.1,0.6,3.7,1.6,4.9c0.9,1.2,2.2,1.8,3.7,1.8
			c1.1,0,2-0.2,2.8-0.5s1.6-0.8,2.4-1.3l1.3,2c-0.6,0.4-1.1,0.7-1.6,0.9c-0.5,0.3-1,0.5-1.6,0.7c-0.5,0.2-1.1,0.3-1.7,0.4
			s-1.2,0.1-2,0.1c-0.9,0-1.8-0.2-2.7-0.5s-1.7-0.9-2.5-1.7c-0.7-0.8-1.4-1.8-1.8-3.1c-0.5-1.3-0.7-2.8-0.7-4.7
			c0-1.5,0.2-2.9,0.6-4.1s0.9-2.2,1.6-3.1c0.7-0.8,1.5-1.5,2.5-2s2-0.7,3.1-0.7c1.2,0,2.3,0.2,3.3,0.7s1.8,1.1,2.4,1.9
			s1.1,1.8,1.5,3C410.6,295.9,410.8,297.2,410.8,298.5z M408.3,297.8c-0.1-1.9-0.6-3.4-1.4-4.6s-2.1-1.7-3.7-1.7
			c-1.4,0-2.6,0.5-3.5,1.5s-1.4,2.6-1.6,4.8L408.3,297.8L408.3,297.8z"/>
		<path class="st0" d="M425.2,292.4c-0.4-0.2-0.8-0.4-1.2-0.5c-0.4-0.1-1-0.2-1.6-0.2c-1.3,0-2.3,0.5-3.1,1.5
			c-0.7,1-1.1,2.4-1.1,4.2v11.2h-2.8v-19h2.8v2.4c0.4-0.8,1.1-1.4,1.9-2c0.8-0.5,1.8-0.8,2.8-0.8c0.7,0,1.3,0,1.8,0.1
			s0.9,0.2,1.2,0.3L425.2,292.4z"/>
		<path class="st0" d="M445,298.8c0,1.7-0.2,3.2-0.6,4.4c-0.4,1.3-0.9,2.3-1.5,3.2c-0.7,0.9-1.4,1.5-2.3,1.9s-1.8,0.7-2.8,0.7
			c-1.2,0-2.2-0.2-3.1-0.7c-0.8-0.5-1.6-1.1-2.3-1.8v2.1h-2.8v-24.9l2.8-1.5v9.7c0.7-0.7,1.5-1.4,2.4-1.9s2-0.8,3.3-0.8
			c0.9,0,1.8,0.2,2.7,0.6c0.8,0.4,1.6,0.9,2.2,1.7c0.6,0.8,1.1,1.8,1.4,3C444.8,295.7,445,297.1,445,298.8z M442.3,298.8
			c0-2.4-0.4-4.3-1.3-5.5c-0.8-1.2-2-1.8-3.5-1.8c-1,0-1.9,0.2-2.8,0.7c-0.8,0.5-1.6,1.2-2.3,2v9.5c0.5,0.8,1.2,1.5,2.1,2
			c0.9,0.6,1.9,0.8,3,0.8c1.6,0,2.8-0.7,3.5-2C442,303.3,442.3,301.4,442.3,298.8z"/>
		<path class="st0" d="M464,298.5c0,0.3,0,0.6,0,0.8c0,0.2,0,0.4-0.1,0.7h-12.6c0.1,2.1,0.6,3.7,1.6,4.9c0.9,1.2,2.2,1.8,3.7,1.8
			c1.1,0,2-0.2,2.8-0.5s1.6-0.8,2.4-1.3l1.3,2c-0.6,0.4-1.1,0.7-1.6,0.9c-0.5,0.3-1,0.5-1.6,0.7c-0.5,0.2-1.1,0.3-1.7,0.4
			s-1.2,0.1-2,0.1c-0.9,0-1.8-0.2-2.7-0.5s-1.7-0.9-2.5-1.7c-0.7-0.8-1.4-1.8-1.8-3.1c-0.5-1.3-0.7-2.8-0.7-4.7
			c0-1.5,0.2-2.9,0.6-4.1s0.9-2.2,1.6-3.1c0.7-0.8,1.5-1.5,2.5-2s2-0.7,3.1-0.7c1.2,0,2.3,0.2,3.3,0.7s1.8,1.1,2.4,1.9
			s1.1,1.8,1.5,3C463.9,295.9,464,297.2,464,298.5z M461.5,297.8c-0.1-1.9-0.6-3.4-1.4-4.6s-2.1-1.7-3.7-1.7c-1.4,0-2.6,0.5-3.5,1.5
			s-1.4,2.6-1.6,4.8L461.5,297.8L461.5,297.8z"/>
		<path class="st0" d="M483.2,298.5c0,0.3,0,0.6,0,0.8c0,0.2,0,0.4-0.1,0.7h-12.6c0.1,2.1,0.6,3.7,1.6,4.9c0.9,1.2,2.2,1.8,3.7,1.8
			c1.1,0,2-0.2,2.8-0.5s1.6-0.8,2.4-1.3l1.3,2c-0.6,0.4-1.1,0.7-1.6,0.9c-0.5,0.3-1,0.5-1.6,0.7c-0.5,0.2-1.1,0.3-1.7,0.4
			s-1.2,0.1-2,0.1c-0.9,0-1.8-0.2-2.7-0.5s-1.7-0.9-2.5-1.7c-0.7-0.8-1.4-1.8-1.8-3.1c-0.5-1.3-0.7-2.8-0.7-4.7
			c0-1.5,0.2-2.9,0.6-4.1s0.9-2.2,1.6-3.1c0.7-0.8,1.5-1.5,2.5-2s2-0.7,3.1-0.7c1.2,0,2.3,0.2,3.3,0.7s1.8,1.1,2.4,1.9
			s1.1,1.8,1.5,3C483,295.9,483.2,297.2,483.2,298.5z M480.7,297.8c-0.1-1.9-0.6-3.4-1.4-4.6s-2.1-1.7-3.7-1.7
			c-1.4,0-2.6,0.5-3.5,1.5s-1.4,2.6-1.6,4.8L480.7,297.8L480.7,297.8z"/>
		<path class="st0" d="M498.7,308.6l-4.8-10l-3.3,4.5v5.5h-2.8v-24.9l2.8-1.5v16.4v1l0.8-1.2l6.2-8.8h3l-5,6.7l6,12.3H498.7z"/>
	</g>
	<g>
		<path class="st0" d="M227.8,260.3l-2.2-7.1h-12.2l-2.2,7.1h-12.1l14.8-40.7h11.4l14.8,40.7H227.8z M222.1,241.5
			c-0.3-1.3-0.7-2.5-0.9-3.4c-0.3-1-0.5-1.8-0.7-2.6s-0.4-1.5-0.6-2.1c-0.2-0.6-0.3-1.3-0.4-2c-0.1,0.7-0.3,1.4-0.4,2
			c-0.2,0.7-0.3,1.4-0.6,2.1c-0.2,0.8-0.5,1.6-0.7,2.6c-0.3,1-0.6,2.1-0.9,3.4l-0.8,2.7h6.7L222.1,241.5z"/>
		<path class="st0" d="M270,246c0,0.4,0,0.8,0,1.1s0,0.6-0.1,0.9H252c0.2,1.7,0.7,2.9,1.7,3.7c0.9,0.8,2.1,1.2,3.5,1.2
			c1.4,0,2.6-0.2,3.8-0.5c1.2-0.3,2.6-0.9,4.1-1.7l4,6.7c-1.9,1.1-3.8,2-5.8,2.6s-4.2,0.9-6.6,0.9c-2.3,0-4.3-0.4-6.1-1.2
			c-1.8-0.8-3.3-1.9-4.5-3.3s-2.1-3.1-2.7-5c-0.6-2-0.9-4.1-0.9-6.4c0-2.6,0.3-4.9,1-6.9s1.7-3.6,2.9-5c1.2-1.3,2.7-2.3,4.4-3
			s3.6-1,5.6-1c4.2,0,7.5,1.4,9.9,4.2C268.8,236.1,270,240.3,270,246z M259.4,238c-0.6-0.8-1.7-1.2-3.3-1.2c-2.4,0-3.7,1.6-4.1,4.6
			h8.7C260.5,240,260,238.8,259.4,238z"/>
		<path class="st0" d="M303.1,245c0,2.6-0.4,4.9-1.1,6.9s-1.7,3.6-3,5s-2.8,2.3-4.6,3c-1.8,0.7-3.7,1-5.8,1c-2.1,0-4-0.3-5.8-1
			s-3.3-1.7-4.6-3s-2.3-3-3-5s-1.1-4.3-1.1-6.9c0-2.7,0.4-5,1.1-7s1.7-3.6,3-4.9c1.3-1.3,2.8-2.3,4.6-3c1.8-0.7,3.7-1,5.8-1
			c2.1,0,4,0.3,5.8,1s3.3,1.6,4.6,3c1.3,1.3,2.3,3,3,4.9C302.7,240,303.1,242.3,303.1,245z M292.7,245c0-2.6-0.3-4.4-1-5.6
			c-0.7-1.2-1.7-1.7-3.1-1.7s-2.4,0.6-3.1,1.7c-0.7,1.2-1,3-1,5.6c0,4.9,1.4,7.4,4.1,7.4C291.3,252.4,292.7,249.9,292.7,245z"/>
		<path class="st0" d="M308.6,260.3v-38.2l10.4-4.2v42.4H308.6z"/>
		<path class="st0" d="M343.2,260.3v-2c-0.9,0.7-2,1.4-3.2,1.9s-2.7,0.8-4.4,0.8c-3.4,0-5.9-1.1-7.5-3.2s-2.4-5.2-2.4-9.3v-18.7
			h10.5v17.3c0,2,0.3,3.3,0.9,4s1.5,1,2.6,1s1.9-0.3,2.6-1c0.6-0.7,0.9-2,0.9-3.9v-17.4h10.5v30.5H343.2z"/>
		<path class="st0" d="M384.8,250.6c0,3.5-1.1,6.1-3.4,7.8c-2.2,1.7-5.3,2.5-9.2,2.5c-2.2,0-4.4-0.2-6.6-0.7
			c-2.1-0.4-4.2-1.1-6.2-1.8l2.4-7.9c1.9,0.8,3.7,1.5,5.6,1.9c1.9,0.5,3.5,0.7,4.9,0.7c1,0,1.7-0.1,2.1-0.3s0.6-0.6,0.6-1
			c0-0.5-0.2-0.9-0.5-1.1c-0.3-0.3-1-0.5-2-0.8c-2.4-0.6-4.3-1.2-6-1.8c-1.6-0.6-2.9-1.3-3.9-2.1s-1.7-1.7-2.1-2.8s-0.7-2.4-0.7-4
			c0-3.1,1-5.6,3.1-7.4c2.1-1.8,5.2-2.6,9.4-2.6c1.2,0,2.2,0,3.2,0.1s1.9,0.2,2.8,0.4s1.9,0.4,2.8,0.7s1.9,0.6,2.9,1l-2.3,8.1
			c-2-0.9-3.8-1.5-5.3-1.9s-3-0.6-4.4-0.6c-1,0-1.7,0.1-2,0.3s-0.5,0.6-0.5,1c0,0.2,0,0.4,0.1,0.6c0.1,0.2,0.2,0.3,0.4,0.5
			c0.2,0.2,0.5,0.3,0.9,0.5s0.9,0.3,1.6,0.5c2.1,0.6,4,1.2,5.5,1.7s2.8,1.3,3.8,2c1,0.8,1.7,1.7,2.2,2.7
			C384.5,247.8,384.8,249.1,384.8,250.6z"/>
		<path class="st0" d="M393.4,257.8c0,0.8-0.3,1.5-0.8,1.9c-0.5,0.5-1.3,0.7-2.2,0.7c-0.3,0-0.5,0-0.8-0.1s-0.5-0.2-0.7-0.3
			s-0.4-0.2-0.6-0.4c-0.2-0.1-0.4-0.3-0.5-0.5l0.6-0.6c0.3,0.3,0.6,0.5,0.9,0.7s0.7,0.3,1.2,0.3c0.7,0,1.2-0.1,1.6-0.4
			s0.5-0.7,0.5-1.3c0-0.5-0.2-0.9-0.6-1.2c-0.4-0.3-0.9-0.4-1.5-0.4h-0.6v-0.8h0.6c0.6,0,1-0.1,1.3-0.4c0.3-0.3,0.4-0.6,0.4-1.1
			c0-0.2,0-0.4-0.1-0.6c-0.1-0.2-0.2-0.3-0.3-0.5s-0.3-0.2-0.5-0.3s-0.5-0.1-0.8-0.1c-0.4,0-0.7,0.1-1,0.2c-0.3,0.1-0.5,0.3-0.8,0.6
			l-0.6-0.6c0.1-0.1,0.3-0.3,0.4-0.4c0.2-0.1,0.3-0.2,0.5-0.3s0.4-0.2,0.6-0.2c0.2-0.1,0.5-0.1,0.7-0.1c0.4,0,0.7,0,1.1,0.1
			s0.6,0.2,0.9,0.4c0.2,0.2,0.4,0.4,0.6,0.7s0.2,0.6,0.2,1c0,0.5-0.1,0.9-0.3,1.3s-0.5,0.6-0.9,0.8c0.2,0,0.4,0.1,0.6,0.2
			s0.4,0.2,0.5,0.4c0.1,0.2,0.3,0.4,0.3,0.6S393.4,257.5,393.4,257.8z"/>
		<path class="st0" d="M396.1,259.6c0,0.2-0.1,0.4-0.2,0.6s-0.3,0.2-0.6,0.2c-0.2,0-0.4-0.1-0.6-0.2c-0.2-0.2-0.2-0.3-0.2-0.6
			s0.1-0.4,0.2-0.6c0.2-0.2,0.3-0.2,0.6-0.2c0.2,0,0.4,0.1,0.6,0.2S396.1,259.4,396.1,259.6z"/>
		<path class="st0" d="M403.5,256c0,0.7-0.1,1.3-0.2,1.9c-0.2,0.6-0.4,1-0.7,1.4c-0.3,0.4-0.6,0.7-1,0.9c-0.4,0.2-0.8,0.3-1.3,0.3
			s-0.9-0.1-1.3-0.3c-0.4-0.2-0.7-0.5-1-0.9s-0.5-0.8-0.7-1.4s-0.2-1.2-0.2-1.9c0-0.7,0.1-1.3,0.2-1.9c0.2-0.6,0.4-1,0.7-1.4
			c0.3-0.4,0.6-0.7,1-0.9s0.8-0.3,1.3-0.3s0.9,0.1,1.3,0.3s0.7,0.5,1,0.9s0.5,0.8,0.7,1.4C403.4,254.6,403.5,255.3,403.5,256z
			 M402.6,256c0-1.1-0.2-2-0.6-2.6s-1-1-1.7-1s-1.3,0.3-1.7,1s-0.6,1.5-0.6,2.6s0.2,2,0.6,2.6s1,1,1.7,1s1.3-0.3,1.7-1
			S402.6,257.1,402.6,256z"/>
	</g>
	<g>
		<path class="st0" d="M168.9,264.1c0-1.9-1.6-3.5-3.5-3.5h-64.2c-1.9,0-3.5,1.6-3.5,3.5s1.6,3.5,3.5,3.5h64.2
			C167.3,267.6,168.9,266,168.9,264.1L168.9,264.1z"/>
		<path class="st1" d="M177.1,240.2H109c-1.9,0-3.5,1.6-3.5,3.5s1.6,3.5,3.5,3.5h68.1c1.9,0,3.5-1.6,3.5-3.5
			C180.6,241.7,179.1,240.2,177.1,240.2L177.1,240.2z"/>
		<path class="st2" d="M170.1,281h-45.4c-1.9,0-3.5,1.6-3.5,3.5s1.6,3.5,3.5,3.5h45.4c1.9,0,3.5-1.6,3.5-3.5S172,281,170.1,281
			L170.1,281z"/>
		<path class="st0" d="M151.2,301.4h-14.9c-1.9,0-3.5,1.6-3.5,3.5s1.6,3.5,3.5,3.5h14.9c1.9,0,3.5-1.6,3.5-3.5
			C154.6,303,153.1,301.4,151.2,301.4L151.2,301.4z"/>
		<path class="st0" d="M186.7,219.7H95.9c-1.9,0-3.5,1.6-3.5,3.5s1.6,3.5,3.5,3.5h90.9c1.9,0,3.5-1.6,3.5-3.5
			C190.2,221.3,188.7,219.7,186.7,219.7L186.7,219.7z"/>
	</g>
</g>
</svg>