<?xml version="1.0" standalone="no"?><!-- Generator: Gravit.io --><svg xmlns="http://www.w3.org/2000/svg" xmlns:xlink="http://www.w3.org/1999/xlink" style="isolation:isolate" viewBox="0 0 100 100" width="100" height="100"><defs><clipPath id="_clipPath_0NcgST0W8XBuVAJp6kcAjnRCSzfDrBja"><rect width="100" height="100"/></clipPath></defs><g clip-path="url(#_clipPath_0NcgST0W8XBuVAJp6kcAjnRCSzfDrBja)"><path d=" M 76.518 44.353 C 76.518 42.455 74.92 40.856 73.022 40.856 L 8.89 40.856 C 6.993 40.856 5.394 42.455 5.394 44.353 C 5.394 46.251 6.993 47.849 8.89 47.849 L 73.022 47.849 C 74.92 47.849 76.518 46.251 76.518 44.353 L 76.518 44.353 Z " fill="rgb(255,255,255)"/><path d=" M 84.709 20.478 L 16.682 20.478 C 14.784 20.478 13.186 22.076 13.186 23.974 C 13.186 25.872 14.784 27.471 16.682 27.471 L 84.709 27.471 C 86.607 27.471 88.206 25.872 88.206 23.974 C 88.206 21.976 86.707 20.478 84.709 20.478 L 84.709 20.478 Z " fill="rgb(255,255,255)"/><path d=" M 77.717 61.234 L 32.365 61.234 C 30.467 61.234 28.869 62.833 28.869 64.731 C 28.869 66.629 30.467 68.227 32.365 68.227 L 77.717 68.227 C 79.615 68.227 81.213 66.629 81.213 64.731 C 81.213 62.833 79.615 61.234 77.717 61.234 L 77.717 61.234 Z " fill="rgb(255,255,255)"/><path d=" M 58.837 81.613 L 43.953 81.613 C 42.055 81.613 40.457 83.211 40.457 85.109 C 40.457 87.007 42.055 88.605 43.953 88.605 L 58.837 88.605 C 60.735 88.605 62.333 87.007 62.333 85.109 C 62.233 83.211 60.735 81.613 58.837 81.613 L 58.837 81.613 Z " fill="rgb(255,255,255)"/><path d=" M 94.299 0 L 3.496 0 C 1.598 0 0 1.598 0 3.496 C 0 5.394 1.598 6.993 3.496 6.993 L 94.299 6.993 C 96.197 6.993 97.795 5.394 97.795 3.496 C 97.795 1.598 96.297 0 94.299 0 L 94.299 0 Z " fill="rgb(255,255,255)"/></g></svg>