<svg xmlns="http://www.w3.org/2000/svg" xmlns:xlink="http://www.w3.org/1999/xlink" width="100" height="100" viewBox="0 0 100 100" x="0px" y="0px">
<style type="text/css">
	.st0{fill:#FFFFFF;}
</style>
<g>
	<path class="st0" d="M324.9,421.1c0-1.9-1.6-3.5-3.5-3.5h-64.2c-1.9,0-3.5,1.6-3.5,3.5c0,1.9,1.6,3.5,3.5,3.5h64.2
		C323.3,424.6,324.9,423,324.9,421.1L324.9,421.1z M324.9,421.1" id="path-0" style="position: relative;"></path>
	<path class="st0" d="M333.1,397.2H265c-1.9,0-3.5,1.6-3.5,3.5c0,1.9,1.6,3.5,3.5,3.5h68.1c1.9,0,3.5-1.6,3.5-3.5
		C336.6,398.7,335.1,397.2,333.1,397.2L333.1,397.2z M333.1,397.2" id="path-1" style="position: relative;"></path>
	<path class="st0" d="M326.1,438h-45.4c-1.9,0-3.5,1.6-3.5,3.5c0,1.9,1.6,3.5,3.5,3.5h45.4c1.9,0,3.5-1.6,3.5-3.5
		C329.6,439.6,328,438,326.1,438L326.1,438z M326.1,438" id="path-2" style="position: relative;"></path>
	<path class="st0" d="M307.2,458.4h-14.9c-1.9,0-3.5,1.6-3.5,3.5c0,1.9,1.6,3.5,3.5,3.5h14.9c1.9,0,3.5-1.6,3.5-3.5
		C310.6,460,309.1,458.4,307.2,458.4L307.2,458.4z M307.2,458.4" id="path-3" style="position: relative;"></path>
	<path class="st0" d="M342.7,376.7h-90.9c-1.9,0-3.5,1.6-3.5,3.5c0,1.9,1.6,3.5,3.5,3.5h90.9c1.9,0,3.5-1.6,3.5-3.5
		C346.2,378.3,344.7,376.7,342.7,376.7L342.7,376.7z M342.7,376.7" id="path-4" style="position: relative;"></path>
</g>
</svg>
